<svg width="256" height="46" viewBox="0 0 256 46" fill="none" xmlns="http://www.w3.org/2000/svg">
<path d="M35.2695 43L20.6211 43.7031L20.5039 30.168H13.7656L13.3555 43H0.230469L1.34375 1.80859L15.2891 2.45312L14.4102 23.4883H20.9141L20.9727 0.871094L34.332 1.22266L35.2695 43ZM72.9746 1.75C72.0957 8.625 71.3438 15.4707 70.7188 22.2871C70.0938 29.084 69.498 35.9297 68.9316 42.8242L56.9199 43.7031L57.4473 39.1914C57.0566 39.6406 56.5977 40.0312 56.0703 40.3633C55.5625 40.6953 55.0156 40.9688 54.4297 41.1836C53.8438 41.3789 53.2383 41.5254 52.6133 41.623C51.9883 41.7012 51.3926 41.7305 50.8262 41.7109C49.498 41.6914 48.248 41.4375 47.0762 40.9492C45.9043 40.4414 44.8301 39.7773 43.8535 38.957C42.877 38.1172 41.998 37.1504 41.2168 36.0566C40.4355 34.9434 39.7715 33.7812 39.2246 32.5703C38.6973 31.3398 38.2871 30.0898 37.9941 28.8203C37.7207 27.5508 37.584 26.3203 37.584 25.1289C37.584 23.3711 37.6133 21.5547 37.6719 19.6797C37.75 17.7852 37.877 15.8906 38.0527 13.9961C38.2285 12.1016 38.4531 10.2266 38.7266 8.37109C39.0195 6.51563 39.3809 4.73828 39.8105 3.03906C42.1934 3.15625 44.5859 3.26367 46.9883 3.36133C49.3906 3.45898 51.7832 3.48828 54.166 3.44922C53.7168 5.14844 53.2676 6.85742 52.8184 8.57617C52.3887 10.2754 51.998 11.9941 51.6465 13.7324C51.2949 15.4512 51.0117 17.1797 50.7969 18.918C50.582 20.6562 50.4746 22.4141 50.4746 24.1914C50.4746 24.6016 50.4941 25.1875 50.5332 25.9492C50.5723 26.7109 50.6699 27.4629 50.8262 28.2051C51.002 28.9473 51.2559 29.6016 51.5879 30.168C51.9395 30.7148 52.4277 30.9883 53.0527 30.9883C53.7949 30.9883 54.459 30.6758 55.0449 30.0508C55.6309 29.4062 56.1484 28.5469 56.5977 27.4727C57.0469 26.3984 57.4277 25.1582 57.7402 23.752C58.0723 22.3457 58.3457 20.8809 58.5605 19.3574C58.7949 17.8145 58.9805 16.2617 59.1172 14.6992C59.2539 13.1367 59.3516 11.6719 59.4102 10.3047C59.4883 8.91797 59.5371 7.67773 59.5566 6.58398C59.5957 5.49023 59.6152 4.64063 59.6152 4.03516C59.6152 3.64453 59.6055 3.26367 59.5859 2.89258C59.5664 2.52148 59.5371 2.14062 59.498 1.75C60.7676 1.78906 62.0273 1.81836 63.2773 1.83789C64.5273 1.85742 65.7871 1.86719 67.0566 1.86719C68.0332 1.86719 69.0098 1.86719 69.9863 1.86719C70.9824 1.84766 71.9785 1.80859 72.9746 1.75ZM111.09 28.1758C111.09 30.3828 111.061 32.5703 111.002 34.7383C110.963 36.8867 110.895 39.0547 110.797 41.2422L93.9219 40.9492C94.5078 37.4922 95.0156 34.0449 95.4453 30.6074C95.875 27.1504 96.0898 23.6641 96.0898 20.1484C96.0898 19.8945 96.0801 19.4844 96.0605 18.918C96.041 18.3516 96.002 17.7168 95.9434 17.0137C95.8848 16.291 95.7969 15.5586 95.6797 14.8164C95.582 14.0547 95.4355 13.3613 95.2402 12.7363C95.0645 12.1113 94.8398 11.6035 94.5664 11.2129C94.3125 10.8027 94 10.5977 93.6289 10.5977C92.9648 10.5977 92.3984 10.793 91.9297 11.1836C91.4805 11.5742 91.0996 12.082 90.7871 12.707C90.4941 13.3125 90.2598 13.9961 90.084 14.7578C89.9082 15.5195 89.7715 16.2812 89.6738 17.043C89.5957 17.8047 89.5371 18.5273 89.498 19.2109C89.4785 19.875 89.4688 20.4219 89.4688 20.8516C89.3711 24.3086 89.293 27.7461 89.2344 31.1641C89.1758 34.5625 89.0977 38 89 41.4766L74.0586 42.1211C74.4492 35.2266 74.8203 28.3711 75.1719 21.5547C75.543 14.7383 75.8359 7.88281 76.0508 0.988281L89.8789 0.285156L89.7617 4.97266C90.3086 4.30859 90.8945 3.68359 91.5195 3.09766C92.1641 2.51172 92.8477 2.01367 93.5703 1.60352C94.293 1.17383 95.0547 0.841797 95.8555 0.607422C96.6758 0.353516 97.5352 0.226562 98.4336 0.226562C100.094 0.226562 101.549 0.5 102.799 1.04688C104.049 1.59375 105.123 2.33594 106.021 3.27344C106.92 4.21094 107.672 5.32422 108.277 6.61328C108.883 7.88281 109.371 9.24023 109.742 10.6855C110.113 12.1309 110.396 13.6445 110.592 15.2266C110.787 16.7891 110.914 18.332 110.973 19.8555C111.051 21.3789 111.09 22.8535 111.09 24.2793C111.09 25.7051 111.09 27.0039 111.09 28.1758ZM149.293 36.4375C148.375 37.5898 147.242 38.5957 145.895 39.4551C144.547 40.3145 143.102 41.0273 141.559 41.5938C140.016 42.1602 138.434 42.5898 136.812 42.8828C135.191 43.1562 133.648 43.293 132.184 43.293C129.352 43.293 126.744 42.8145 124.361 41.8574C121.979 40.9004 119.918 39.5723 118.18 37.873C116.461 36.1543 115.113 34.1133 114.137 31.75C113.16 29.3867 112.672 26.8086 112.672 24.0156C112.672 21.8867 112.916 19.8164 113.404 17.8047C113.893 15.793 114.586 13.9082 115.484 12.1504C116.402 10.3926 117.516 8.78125 118.824 7.31641C120.133 5.85156 121.617 4.5918 123.277 3.53711C124.938 2.48242 126.754 1.67187 128.727 1.10547C130.719 0.519531 132.828 0.226562 135.055 0.226562C135.895 0.226562 136.793 0.265625 137.75 0.34375C138.707 0.402344 139.654 0.519531 140.592 0.695312C141.549 0.851562 142.477 1.07617 143.375 1.36914C144.273 1.66211 145.094 2.02344 145.836 2.45312L145.016 13.6445C143.922 13.2344 142.789 12.9609 141.617 12.8242C140.465 12.668 139.332 12.5898 138.219 12.5898C136.656 12.5898 135.191 12.8047 133.824 13.2344C132.477 13.6445 131.295 14.2598 130.279 15.0801C129.283 15.9004 128.492 16.9258 127.906 18.1562C127.32 19.3867 127.027 20.8125 127.027 22.4336C127.027 23.4492 127.164 24.4355 127.438 25.3926C127.711 26.3301 128.121 27.1699 128.668 27.9121C129.234 28.6348 129.928 29.2207 130.748 29.6699C131.588 30.1191 132.555 30.3438 133.648 30.3438C134.391 30.3438 135.152 30.2461 135.934 30.0508C136.734 29.8555 137.418 29.5234 137.984 29.0547L138.102 26.7695L131.07 26.6523L131.422 17.8633C134.332 17.7656 137.242 17.6875 140.152 17.6289C143.062 17.5508 145.992 17.4531 148.941 17.3359L149.293 36.4375ZM185.885 14.7578C185.885 16.2812 185.748 17.668 185.475 18.918C185.221 20.1484 184.811 21.2812 184.244 22.3164C183.678 23.3516 182.945 24.3086 182.047 25.1875C181.148 26.0664 180.064 26.9062 178.795 27.707L185.768 40.1289L172.584 42.707L168.072 30.2266L164.439 30.3438L163.912 42.5312H151.314C151.412 38.0781 151.5 33.6445 151.578 29.2305C151.676 24.8164 151.783 20.3828 151.9 15.9297C151.939 13.6836 151.979 11.457 152.018 9.25C152.057 7.04297 152.135 4.81641 152.252 2.57031C153.619 2.0625 154.967 1.64258 156.295 1.31055C157.623 0.978516 158.951 0.724609 160.279 0.548828C161.627 0.353516 162.984 0.226562 164.352 0.167969C165.738 0.0898437 167.154 0.0507812 168.6 0.0507812C170.826 0.0507812 172.975 0.363281 175.045 0.988281C177.135 1.59375 178.98 2.51172 180.582 3.74219C182.184 4.97266 183.463 6.50586 184.42 8.3418C185.396 10.1777 185.885 12.3164 185.885 14.7578ZM172.76 15.6953C172.76 14.875 172.643 14.123 172.408 13.4395C172.193 12.7559 171.861 12.1699 171.412 11.6816C170.982 11.1738 170.436 10.7832 169.771 10.5098C169.127 10.2168 168.365 10.0703 167.486 10.0703C167.096 10.0703 166.715 10.0996 166.344 10.1582C165.973 10.1973 165.611 10.2656 165.26 10.3633L164.791 21.2617H165.494C166.334 21.2617 167.184 21.1543 168.043 20.9395C168.922 20.7246 169.703 20.3926 170.387 19.9434C171.09 19.4941 171.656 18.918 172.086 18.2148C172.535 17.5117 172.76 16.6719 172.76 15.6953ZM223.414 3.33203L209.645 25.832L210.055 42.4141H194.996L195.348 25.9492L184.625 4.21094L199.566 2.33594L204.254 14.9922L209.352 2.33594L223.414 3.33203ZM242.252 31.5742H232.35C232.213 29.5039 232.33 27.7754 232.701 26.3887C233.072 24.9824 233.57 23.8203 234.195 22.9023C234.84 21.9648 235.553 21.2129 236.334 20.6465C237.135 20.0605 237.906 19.5625 238.648 19.1523C239.41 18.7227 240.074 18.3125 240.641 17.9219C241.227 17.5312 241.627 17.043 241.842 16.457C241.979 16.1055 242.018 15.7051 241.959 15.2559C241.9 14.7871 241.695 14.3477 241.344 13.9375C241.012 13.5273 240.504 13.1855 239.82 12.9121C239.156 12.6191 238.287 12.4727 237.213 12.4727C236.51 12.4727 235.67 12.541 234.693 12.6777C233.736 12.7949 232.73 12.9902 231.676 13.2637C230.621 13.5176 229.576 13.8398 228.541 14.2305C227.525 14.6016 226.607 15.0313 225.787 15.5195L224.498 4.03516C225.221 3.60547 226.031 3.16602 226.93 2.7168C227.848 2.24805 228.854 1.83789 229.947 1.48633C231.041 1.11523 232.232 0.8125 233.521 0.578125C234.811 0.34375 236.197 0.226562 237.682 0.226562C240.084 0.226562 242.35 0.558594 244.479 1.22266C246.627 1.88672 248.502 2.86328 250.104 4.15234C251.705 5.44141 252.975 7.0332 253.912 8.92773C254.85 10.8027 255.318 12.9609 255.318 15.4023C255.318 17.2578 255.055 18.752 254.527 19.8848C254 20.998 253.326 21.916 252.506 22.6387C251.686 23.3613 250.768 23.9668 249.752 24.4551C248.736 24.9434 247.74 25.4805 246.764 26.0664C245.807 26.6328 244.918 27.3359 244.098 28.1758C243.297 29.0156 242.682 30.1484 242.252 31.5742ZM243.717 39.3086C243.717 40.168 243.551 40.9688 243.219 41.7109C242.887 42.4531 242.438 43.0977 241.871 43.6445C241.324 44.2109 240.68 44.6504 239.938 44.9629C239.195 45.2949 238.404 45.4609 237.564 45.4609C236.705 45.4609 235.904 45.2949 235.162 44.9629C234.42 44.6504 233.766 44.2109 233.199 43.6445C232.652 43.0977 232.213 42.4531 231.881 41.7109C231.568 40.9688 231.412 40.168 231.412 39.3086C231.412 38.4688 231.568 37.668 231.881 36.9062C232.213 36.1445 232.652 35.4902 233.199 34.9434C233.766 34.377 234.42 33.9277 235.162 33.5957C235.904 33.2637 236.705 33.0977 237.564 33.0977C238.404 33.0977 239.195 33.2637 239.938 33.5957C240.68 33.9277 241.324 34.377 241.871 34.9434C242.438 35.4902 242.887 36.1445 243.219 36.9062C243.551 37.668 243.717 38.4688 243.717 39.3086Z" fill="white"/>
</svg>
